<mxfile host="app.diagrams.net" agent="Mozilla/5.0 (Windows NT 10.0; Win64; x64) AppleWebKit/537.36 (KHTML, like Gecko) Chrome/131.0.0.0 Safari/537.36" version="25.0.3">
  <diagram name="Page-1" id="pe8Rl1tk9ksP6p4iJ54w">
    <mxGraphModel dx="1235" dy="1714" grid="1" gridSize="10" guides="1" tooltips="1" connect="1" arrows="1" fold="1" page="1" pageScale="1" pageWidth="850" pageHeight="1100" math="0" shadow="0">
      <root>
        <mxCell id="0" />
        <mxCell id="1" parent="0" />
        <mxCell id="evgiQNQC6SbYIasGAWQF-1" value="Electricity Complaint System" style="swimlane;childLayout=stackLayout;resizeParent=1;resizeParentMax=0;startSize=20;html=1;" vertex="1" parent="1">
          <mxGeometry x="190" y="-90" width="1460" height="2100" as="geometry" />
        </mxCell>
        <mxCell id="evgiQNQC6SbYIasGAWQF-17" value="Shift Supervisor" style="swimlane;startSize=30;html=1;" vertex="1" parent="evgiQNQC6SbYIasGAWQF-1">
          <mxGeometry y="20" width="200" height="2080" as="geometry" />
        </mxCell>
        <mxCell id="evgiQNQC6SbYIasGAWQF-18" style="edgeStyle=orthogonalEdgeStyle;rounded=0;orthogonalLoop=1;jettySize=auto;html=1;" edge="1" parent="evgiQNQC6SbYIasGAWQF-17" source="ji_p8Mu0rosdrz9c3FZI-14">
          <mxGeometry relative="1" as="geometry">
            <mxPoint x="95" y="130" as="targetPoint" />
          </mxGeometry>
        </mxCell>
        <mxCell id="ji_p8Mu0rosdrz9c3FZI-14" value="" style="ellipse;html=1;shape=startState;fillColor=#000000;strokeColor=#ff0000;" parent="evgiQNQC6SbYIasGAWQF-17" vertex="1">
          <mxGeometry x="80" y="50" width="30" height="30" as="geometry" />
        </mxCell>
        <mxCell id="evgiQNQC6SbYIasGAWQF-22" style="edgeStyle=orthogonalEdgeStyle;rounded=0;orthogonalLoop=1;jettySize=auto;html=1;" edge="1" parent="evgiQNQC6SbYIasGAWQF-17">
          <mxGeometry relative="1" as="geometry">
            <mxPoint x="220" y="160" as="targetPoint" />
            <mxPoint x="155" y="160" as="sourcePoint" />
          </mxGeometry>
        </mxCell>
        <mxCell id="evgiQNQC6SbYIasGAWQF-30" value="Supervisor assigns shifts and examines tools, materials&amp;nbsp;" style="rounded=1;whiteSpace=wrap;html=1;" vertex="1" parent="evgiQNQC6SbYIasGAWQF-17">
          <mxGeometry x="35" y="130" width="120" height="60" as="geometry" />
        </mxCell>
        <mxCell id="evgiQNQC6SbYIasGAWQF-16" value="User" style="swimlane;startSize=30;html=1;" vertex="1" parent="evgiQNQC6SbYIasGAWQF-1">
          <mxGeometry x="200" y="20" width="190" height="2080" as="geometry" />
        </mxCell>
        <mxCell id="evgiQNQC6SbYIasGAWQF-26" style="edgeStyle=orthogonalEdgeStyle;rounded=0;orthogonalLoop=1;jettySize=auto;html=1;" edge="1" parent="evgiQNQC6SbYIasGAWQF-16">
          <mxGeometry relative="1" as="geometry">
            <mxPoint x="95" y="270" as="targetPoint" />
            <mxPoint x="95" y="190" as="sourcePoint" />
          </mxGeometry>
        </mxCell>
        <mxCell id="evgiQNQC6SbYIasGAWQF-28" style="edgeStyle=orthogonalEdgeStyle;rounded=0;orthogonalLoop=1;jettySize=auto;html=1;" edge="1" parent="evgiQNQC6SbYIasGAWQF-16">
          <mxGeometry relative="1" as="geometry">
            <mxPoint x="230" y="315" as="targetPoint" />
            <mxPoint x="155" y="315" as="sourcePoint" />
          </mxGeometry>
        </mxCell>
        <mxCell id="evgiQNQC6SbYIasGAWQF-32" value="User contacts shift operator to file a complaint" style="rounded=1;whiteSpace=wrap;html=1;" vertex="1" parent="evgiQNQC6SbYIasGAWQF-16">
          <mxGeometry x="30" y="130" width="120" height="60" as="geometry" />
        </mxCell>
        <mxCell id="evgiQNQC6SbYIasGAWQF-33" value="User gives information like name and contact information, location&amp;nbsp; and nature of issue" style="rounded=1;whiteSpace=wrap;html=1;" vertex="1" parent="evgiQNQC6SbYIasGAWQF-16">
          <mxGeometry x="30" y="270" width="125" height="80" as="geometry" />
        </mxCell>
        <mxCell id="evgiQNQC6SbYIasGAWQF-15" value="Shift Operator" style="swimlane;startSize=30;html=1;" vertex="1" parent="evgiQNQC6SbYIasGAWQF-1">
          <mxGeometry x="390" y="20" width="260" height="2080" as="geometry" />
        </mxCell>
        <mxCell id="evgiQNQC6SbYIasGAWQF-35" style="edgeStyle=orthogonalEdgeStyle;rounded=0;orthogonalLoop=1;jettySize=auto;html=1;" edge="1" parent="evgiQNQC6SbYIasGAWQF-15" source="evgiQNQC6SbYIasGAWQF-34">
          <mxGeometry relative="1" as="geometry">
            <mxPoint x="100" y="410" as="targetPoint" />
          </mxGeometry>
        </mxCell>
        <mxCell id="evgiQNQC6SbYIasGAWQF-34" value="Operator receives the complaint from user" style="rounded=1;whiteSpace=wrap;html=1;" vertex="1" parent="evgiQNQC6SbYIasGAWQF-15">
          <mxGeometry x="40" y="290" width="120" height="60" as="geometry" />
        </mxCell>
        <mxCell id="evgiQNQC6SbYIasGAWQF-38" style="edgeStyle=orthogonalEdgeStyle;rounded=0;orthogonalLoop=1;jettySize=auto;html=1;entryX=0.5;entryY=0;entryDx=0;entryDy=0;" edge="1" parent="evgiQNQC6SbYIasGAWQF-15" source="evgiQNQC6SbYIasGAWQF-36" target="evgiQNQC6SbYIasGAWQF-37">
          <mxGeometry relative="1" as="geometry">
            <Array as="points">
              <mxPoint x="205" y="440" />
            </Array>
          </mxGeometry>
        </mxCell>
        <mxCell id="evgiQNQC6SbYIasGAWQF-43" style="edgeStyle=orthogonalEdgeStyle;rounded=0;orthogonalLoop=1;jettySize=auto;html=1;entryX=0.5;entryY=0;entryDx=0;entryDy=0;" edge="1" parent="evgiQNQC6SbYIasGAWQF-15" source="evgiQNQC6SbYIasGAWQF-36" target="evgiQNQC6SbYIasGAWQF-44">
          <mxGeometry relative="1" as="geometry">
            <mxPoint x="140" y="520" as="targetPoint" />
          </mxGeometry>
        </mxCell>
        <mxCell id="evgiQNQC6SbYIasGAWQF-36" value="User logs the complaint into Shift Book" style="rounded=1;whiteSpace=wrap;html=1;" vertex="1" parent="evgiQNQC6SbYIasGAWQF-15">
          <mxGeometry x="40" y="410" width="120" height="60" as="geometry" />
        </mxCell>
        <mxCell id="evgiQNQC6SbYIasGAWQF-37" value="Shift Book" style="html=1;whiteSpace=wrap;" vertex="1" parent="evgiQNQC6SbYIasGAWQF-15">
          <mxGeometry x="150" y="510" width="110" height="50" as="geometry" />
        </mxCell>
        <mxCell id="evgiQNQC6SbYIasGAWQF-47" style="edgeStyle=orthogonalEdgeStyle;rounded=0;orthogonalLoop=1;jettySize=auto;html=1;" edge="1" parent="evgiQNQC6SbYIasGAWQF-15" source="evgiQNQC6SbYIasGAWQF-44">
          <mxGeometry relative="1" as="geometry">
            <mxPoint x="340" y="630" as="targetPoint" />
          </mxGeometry>
        </mxCell>
        <mxCell id="evgiQNQC6SbYIasGAWQF-44" value="Shift operator Communicates the complaint details to the &lt;strong&gt;Shift Foreman&lt;/strong&gt; using wireless communication." style="rounded=1;whiteSpace=wrap;html=1;" vertex="1" parent="evgiQNQC6SbYIasGAWQF-15">
          <mxGeometry x="30" y="580" width="140" height="100" as="geometry" />
        </mxCell>
        <mxCell id="evgiQNQC6SbYIasGAWQF-2" value="Shift Foreman" style="swimlane;startSize=30;html=1;" vertex="1" parent="evgiQNQC6SbYIasGAWQF-1">
          <mxGeometry x="650" y="20" width="170" height="2080" as="geometry" />
        </mxCell>
        <mxCell id="evgiQNQC6SbYIasGAWQF-50" style="edgeStyle=orthogonalEdgeStyle;rounded=0;orthogonalLoop=1;jettySize=auto;html=1;" edge="1" parent="evgiQNQC6SbYIasGAWQF-2" source="evgiQNQC6SbYIasGAWQF-49">
          <mxGeometry relative="1" as="geometry">
            <mxPoint x="100" y="720" as="targetPoint" />
          </mxGeometry>
        </mxCell>
        <mxCell id="evgiQNQC6SbYIasGAWQF-49" value="Assigns a suitable repair team to the fault location." style="rounded=1;whiteSpace=wrap;html=1;" vertex="1" parent="evgiQNQC6SbYIasGAWQF-2">
          <mxGeometry x="40" y="600" width="120" height="60" as="geometry" />
        </mxCell>
        <mxCell id="evgiQNQC6SbYIasGAWQF-52" style="edgeStyle=orthogonalEdgeStyle;rounded=0;orthogonalLoop=1;jettySize=auto;html=1;" edge="1" parent="evgiQNQC6SbYIasGAWQF-2" source="evgiQNQC6SbYIasGAWQF-51">
          <mxGeometry relative="1" as="geometry">
            <mxPoint x="240" y="750" as="targetPoint" />
          </mxGeometry>
        </mxCell>
        <mxCell id="evgiQNQC6SbYIasGAWQF-51" value="Passes the instruction to repair team" style="rounded=1;whiteSpace=wrap;html=1;" vertex="1" parent="evgiQNQC6SbYIasGAWQF-2">
          <mxGeometry x="30" y="720" width="120" height="60" as="geometry" />
        </mxCell>
        <mxCell id="evgiQNQC6SbYIasGAWQF-93" style="edgeStyle=orthogonalEdgeStyle;rounded=0;orthogonalLoop=1;jettySize=auto;html=1;" edge="1" parent="evgiQNQC6SbYIasGAWQF-2" source="evgiQNQC6SbYIasGAWQF-90" target="evgiQNQC6SbYIasGAWQF-51">
          <mxGeometry relative="1" as="geometry" />
        </mxCell>
        <mxCell id="evgiQNQC6SbYIasGAWQF-90" value="Foreman evaluates the issue posed by the team" style="rounded=1;whiteSpace=wrap;html=1;" vertex="1" parent="evgiQNQC6SbYIasGAWQF-2">
          <mxGeometry x="30" y="840" width="120" height="60" as="geometry" />
        </mxCell>
        <mxCell id="evgiQNQC6SbYIasGAWQF-103" value="Draft a NEFR with tools used" style="rounded=1;whiteSpace=wrap;html=1;" vertex="1" parent="evgiQNQC6SbYIasGAWQF-2">
          <mxGeometry x="30" y="1430" width="110" height="60" as="geometry" />
        </mxCell>
        <mxCell id="evgiQNQC6SbYIasGAWQF-3" value="Repair Team" style="swimlane;startSize=30;html=1;" vertex="1" parent="evgiQNQC6SbYIasGAWQF-1">
          <mxGeometry x="820" y="20" width="350" height="2080" as="geometry" />
        </mxCell>
        <mxCell id="evgiQNQC6SbYIasGAWQF-54" style="edgeStyle=orthogonalEdgeStyle;rounded=0;orthogonalLoop=1;jettySize=auto;html=1;" edge="1" parent="evgiQNQC6SbYIasGAWQF-3" source="evgiQNQC6SbYIasGAWQF-53">
          <mxGeometry relative="1" as="geometry">
            <mxPoint x="110" y="830" as="targetPoint" />
          </mxGeometry>
        </mxCell>
        <mxCell id="evgiQNQC6SbYIasGAWQF-53" value="Team proceeds to fault site" style="rounded=1;whiteSpace=wrap;html=1;" vertex="1" parent="evgiQNQC6SbYIasGAWQF-3">
          <mxGeometry x="50" y="720" width="120" height="60" as="geometry" />
        </mxCell>
        <mxCell id="evgiQNQC6SbYIasGAWQF-56" style="edgeStyle=orthogonalEdgeStyle;rounded=0;orthogonalLoop=1;jettySize=auto;html=1;" edge="1" parent="evgiQNQC6SbYIasGAWQF-3" source="evgiQNQC6SbYIasGAWQF-55">
          <mxGeometry relative="1" as="geometry">
            <mxPoint x="110" y="930" as="targetPoint" />
          </mxGeometry>
        </mxCell>
        <mxCell id="evgiQNQC6SbYIasGAWQF-55" value="Arrives at location and inspects the fault" style="rounded=1;whiteSpace=wrap;html=1;" vertex="1" parent="evgiQNQC6SbYIasGAWQF-3">
          <mxGeometry x="50" y="830" width="120" height="60" as="geometry" />
        </mxCell>
        <mxCell id="evgiQNQC6SbYIasGAWQF-89" style="edgeStyle=orthogonalEdgeStyle;rounded=0;orthogonalLoop=1;jettySize=auto;html=1;" edge="1" parent="evgiQNQC6SbYIasGAWQF-3" source="evgiQNQC6SbYIasGAWQF-57">
          <mxGeometry relative="1" as="geometry">
            <mxPoint x="-90" y="900" as="targetPoint" />
          </mxGeometry>
        </mxCell>
        <mxCell id="evgiQNQC6SbYIasGAWQF-57" value="Informs foreman about the problem with necessary constraints" style="rounded=1;whiteSpace=wrap;html=1;" vertex="1" parent="evgiQNQC6SbYIasGAWQF-3">
          <mxGeometry x="120" y="1330" width="120" height="60" as="geometry" />
        </mxCell>
        <mxCell id="evgiQNQC6SbYIasGAWQF-97" value="" style="html=1;points=[];perimeter=orthogonalPerimeter;fillColor=strokeColor;direction=south;" vertex="1" parent="evgiQNQC6SbYIasGAWQF-3">
          <mxGeometry x="150" y="1280" width="80" height="10" as="geometry" />
        </mxCell>
        <mxCell id="evgiQNQC6SbYIasGAWQF-99" style="edgeStyle=orthogonalEdgeStyle;rounded=0;orthogonalLoop=1;jettySize=auto;html=1;entryX=0.582;entryY=-0.014;entryDx=0;entryDy=0;entryPerimeter=0;" edge="1" parent="evgiQNQC6SbYIasGAWQF-3" source="evgiQNQC6SbYIasGAWQF-97" target="evgiQNQC6SbYIasGAWQF-57">
          <mxGeometry relative="1" as="geometry" />
        </mxCell>
        <mxCell id="evgiQNQC6SbYIasGAWQF-105" value="The team repairs the fault and informs the foreman" style="rounded=1;whiteSpace=wrap;html=1;" vertex="1" parent="evgiQNQC6SbYIasGAWQF-3">
          <mxGeometry x="205" y="1490" width="120" height="60" as="geometry" />
        </mxCell>
        <mxCell id="evgiQNQC6SbYIasGAWQF-111" style="edgeStyle=orthogonalEdgeStyle;rounded=0;orthogonalLoop=1;jettySize=auto;html=1;" edge="1" parent="evgiQNQC6SbYIasGAWQF-3" source="evgiQNQC6SbYIasGAWQF-110">
          <mxGeometry relative="1" as="geometry">
            <mxPoint x="400" y="1620" as="targetPoint" />
          </mxGeometry>
        </mxCell>
        <mxCell id="evgiQNQC6SbYIasGAWQF-110" value="The team completes the NEFR stating all the workload and sizes" style="rounded=1;whiteSpace=wrap;html=1;" vertex="1" parent="evgiQNQC6SbYIasGAWQF-3">
          <mxGeometry x="200" y="1590" width="120" height="60" as="geometry" />
        </mxCell>
        <mxCell id="evgiQNQC6SbYIasGAWQF-125" value="If&amp;nbsp;&lt;div&gt;additionial mateirlal is required&lt;/div&gt;" style="rhombus;whiteSpace=wrap;html=1;fontColor=#000000;fillColor=#ffffc0;strokeColor=#ff0000;" vertex="1" parent="evgiQNQC6SbYIasGAWQF-3">
          <mxGeometry x="60" y="930" width="100" height="90" as="geometry" />
        </mxCell>
        <mxCell id="evgiQNQC6SbYIasGAWQF-127" value="yes" style="edgeStyle=orthogonalEdgeStyle;html=1;align=left;verticalAlign=top;endArrow=open;endSize=8;strokeColor=#ff0000;rounded=0;entryX=0.48;entryY=1.005;entryDx=0;entryDy=0;entryPerimeter=0;" edge="1" source="evgiQNQC6SbYIasGAWQF-125" parent="evgiQNQC6SbYIasGAWQF-3" target="evgiQNQC6SbYIasGAWQF-97">
          <mxGeometry x="-1" relative="1" as="geometry">
            <mxPoint x="110" y="1040" as="targetPoint" />
          </mxGeometry>
        </mxCell>
        <mxCell id="evgiQNQC6SbYIasGAWQF-126" value="no" style="edgeStyle=orthogonalEdgeStyle;html=1;align=left;verticalAlign=bottom;endArrow=open;endSize=8;strokeColor=#ff0000;rounded=0;entryX=0.5;entryY=0;entryDx=0;entryDy=0;" edge="1" source="evgiQNQC6SbYIasGAWQF-125" parent="evgiQNQC6SbYIasGAWQF-3">
          <mxGeometry x="-1" relative="1" as="geometry">
            <mxPoint x="210" y="1060" as="targetPoint" />
            <Array as="points">
              <mxPoint x="210" y="975" />
            </Array>
          </mxGeometry>
        </mxCell>
        <mxCell id="evgiQNQC6SbYIasGAWQF-128" value="If&amp;nbsp;&lt;div&gt;additionial mateirlal is required&lt;/div&gt;" style="rhombus;whiteSpace=wrap;html=1;fontColor=#000000;fillColor=#ffffc0;strokeColor=#ff0000;" vertex="1" parent="evgiQNQC6SbYIasGAWQF-3">
          <mxGeometry x="160" y="1060" width="100" height="90" as="geometry" />
        </mxCell>
        <mxCell id="evgiQNQC6SbYIasGAWQF-130" value="no" style="edgeStyle=orthogonalEdgeStyle;html=1;align=left;verticalAlign=bottom;endArrow=open;endSize=8;strokeColor=#ff0000;rounded=0;" edge="1" parent="evgiQNQC6SbYIasGAWQF-3" source="evgiQNQC6SbYIasGAWQF-128" target="evgiQNQC6SbYIasGAWQF-105">
          <mxGeometry x="-1" relative="1" as="geometry">
            <mxPoint x="310" y="1190" as="targetPoint" />
            <Array as="points">
              <mxPoint x="310" y="1105" />
            </Array>
          </mxGeometry>
        </mxCell>
        <mxCell id="evgiQNQC6SbYIasGAWQF-134" value="yes" style="edgeStyle=orthogonalEdgeStyle;html=1;align=left;verticalAlign=top;endArrow=open;endSize=8;strokeColor=#ff0000;rounded=0;exitX=0.5;exitY=1;exitDx=0;exitDy=0;entryX=-0.4;entryY=0.255;entryDx=0;entryDy=0;entryPerimeter=0;" edge="1" parent="evgiQNQC6SbYIasGAWQF-3" source="evgiQNQC6SbYIasGAWQF-128" target="evgiQNQC6SbYIasGAWQF-97">
          <mxGeometry x="-1" relative="1" as="geometry">
            <mxPoint x="210" y="1260" as="targetPoint" />
            <mxPoint x="290" y="990" as="sourcePoint" />
            <Array as="points" />
          </mxGeometry>
        </mxCell>
        <mxCell id="evgiQNQC6SbYIasGAWQF-4" value="&lt;div&gt;Executive Engineer&lt;/div&gt;" style="swimlane;startSize=30;html=1;" vertex="1" parent="evgiQNQC6SbYIasGAWQF-1">
          <mxGeometry x="1170" y="20" width="290" height="2080" as="geometry">
            <mxRectangle x="400" y="20" width="40" height="570" as="alternateBounds" />
          </mxGeometry>
        </mxCell>
        <mxCell id="evgiQNQC6SbYIasGAWQF-114" style="edgeStyle=orthogonalEdgeStyle;rounded=0;orthogonalLoop=1;jettySize=auto;html=1;" edge="1" parent="evgiQNQC6SbYIasGAWQF-4" source="evgiQNQC6SbYIasGAWQF-113">
          <mxGeometry relative="1" as="geometry">
            <mxPoint x="120" y="1680" as="targetPoint" />
          </mxGeometry>
        </mxCell>
        <mxCell id="evgiQNQC6SbYIasGAWQF-113" value="Collects the NEFR report" style="rounded=1;whiteSpace=wrap;html=1;" vertex="1" parent="evgiQNQC6SbYIasGAWQF-4">
          <mxGeometry x="50" y="1590" width="140" height="60" as="geometry" />
        </mxCell>
        <mxCell id="evgiQNQC6SbYIasGAWQF-119" style="edgeStyle=orthogonalEdgeStyle;rounded=0;orthogonalLoop=1;jettySize=auto;html=1;" edge="1" parent="evgiQNQC6SbYIasGAWQF-4" source="evgiQNQC6SbYIasGAWQF-116">
          <mxGeometry relative="1" as="geometry">
            <mxPoint x="120" y="1790" as="targetPoint" />
          </mxGeometry>
        </mxCell>
        <mxCell id="evgiQNQC6SbYIasGAWQF-116" value="Engineer finializes the NEFR Report" style="rounded=1;whiteSpace=wrap;html=1;" vertex="1" parent="evgiQNQC6SbYIasGAWQF-4">
          <mxGeometry x="60" y="1680" width="120" height="60" as="geometry" />
        </mxCell>
        <mxCell id="evgiQNQC6SbYIasGAWQF-122" style="edgeStyle=orthogonalEdgeStyle;rounded=0;orthogonalLoop=1;jettySize=auto;html=1;" edge="1" parent="evgiQNQC6SbYIasGAWQF-4" source="evgiQNQC6SbYIasGAWQF-120">
          <mxGeometry relative="1" as="geometry">
            <mxPoint x="120" y="1900" as="targetPoint" />
          </mxGeometry>
        </mxCell>
        <mxCell id="evgiQNQC6SbYIasGAWQF-120" value="All work is done and documented." style="rounded=1;whiteSpace=wrap;html=1;" vertex="1" parent="evgiQNQC6SbYIasGAWQF-4">
          <mxGeometry x="60" y="1790" width="120" height="60" as="geometry" />
        </mxCell>
        <mxCell id="evgiQNQC6SbYIasGAWQF-124" value="" style="ellipse;html=1;shape=endState;fillColor=#000000;strokeColor=#ff0000;" vertex="1" parent="evgiQNQC6SbYIasGAWQF-4">
          <mxGeometry x="105" y="1900" width="30" height="30" as="geometry" />
        </mxCell>
        <mxCell id="evgiQNQC6SbYIasGAWQF-106" style="edgeStyle=orthogonalEdgeStyle;rounded=0;orthogonalLoop=1;jettySize=auto;html=1;entryX=0.5;entryY=1;entryDx=0;entryDy=0;" edge="1" parent="evgiQNQC6SbYIasGAWQF-1" source="evgiQNQC6SbYIasGAWQF-105" target="evgiQNQC6SbYIasGAWQF-103">
          <mxGeometry relative="1" as="geometry" />
        </mxCell>
        <mxCell id="evgiQNQC6SbYIasGAWQF-108" style="edgeStyle=orthogonalEdgeStyle;rounded=0;orthogonalLoop=1;jettySize=auto;html=1;entryX=0;entryY=0.5;entryDx=0;entryDy=0;" edge="1" parent="evgiQNQC6SbYIasGAWQF-1" source="evgiQNQC6SbYIasGAWQF-103" target="evgiQNQC6SbYIasGAWQF-110">
          <mxGeometry relative="1" as="geometry">
            <mxPoint x="990" y="1640" as="targetPoint" />
            <Array as="points">
              <mxPoint x="810" y="1480" />
              <mxPoint x="810" y="1630" />
              <mxPoint x="950" y="1630" />
              <mxPoint x="950" y="1640" />
            </Array>
          </mxGeometry>
        </mxCell>
      </root>
    </mxGraphModel>
  </diagram>
</mxfile>
